# xmcd CD database file
#
# Track frame offsets:
#	150
#	13180
#	27512
#	41225
#	52980
#	68045
#	80785
#	93947
#	107882
#	120932
#	135107
#	147700
#	159840
#	172895
#	185047
#	197707
#	209347
#	222715
#	234405
#	249112
#
# Disc length: 3514 seconds
#
# Revision: 2
# Processed by: cddbd v1.5.2PL0 Copyright (c) Steve Scherf et al.
# Submitted via: CDex 1.51
#
DISCID=1a0db814
DTITLE=Dinah Washington - The Queen of the Blues  {1943-1947}
DYEAR=1998
DGENRE=Blues
TTITLE0=Evil Gal Blues
TTITLE1=I Know How To Do It
TTITLE2=Salty Papa Blues
TTITLE3=Choo Choo Baby
TTITLE4=Blow Top Blues
TTITLE5=Wise Woman Blues
TTITLE6=Rich Man's Blues
TTITLE7=My Lovin' Papa
TTITLE8=Blues For A Day
TTITLE9=Mellow Mama Blues
TTITLE10=Joy Juice
TTITLE11=Oo-Wee Walkie Talkie
TTITLE12=Postman Blues
TTITLE13=A Slick Chick  (On the Mellow Side)
TTITLE14=You Satisfy
TTITLE15=There's Got To Be A Change
TTITLE16=West Side Baby
TTITLE17=Early In The Morning
TTITLE18=Record Ban Blues
TTITLE19=Resolution Blues
EXTD=YEAR: 1998
EXTT0=Lionel Hampton and his Sextet, 1943
EXTT1=Lionel Hampton and his Sextet, 1943
EXTT2=Lionel Hampton and his Sextet, 1943
EXTT3=Lionel Hampton and his Orchestra, 1943
EXTT4=Lionel Hampton and his Septet, 1945
EXTT5=Lucky Thompson All Stars, 1945
EXTT6=Lucky Thompson All Stars, 1945
EXTT7=Lucky Thompson All Stars, 1945
EXTT8=Lucky Thompson All Stars, 1945
EXTT9=Lucky Thompson All Stars, 1945
EXTT10=Gus Chappell Orchestra, 1946
EXTT11=Gerald Wilson Orchestra, 1946
EXTT12=
EXTT13=Tab Smith Orchestra, 1946
EXTT14=Dave Young Orchestra, 1947
EXTT15=Dave Young Orchestra, 1947
EXTT16=Rudy Martin Trio, 1947
EXTT17=Rudy Martin Trio, 1947
EXTT18=Cootie Williams Orchestra, 1947
EXTT19=Cootie Williams Orchestra, 1947
PLAYORDER=
